# xmcd
#
# Track frame offsets: 
#        150
#        8843
#        27789
#        45309
#        63423
#        78926
#        103157
#        116427
#        134858
#        158452
#        181237
#
# Disc length: 2505 seconds
#
# Revision: 2
# Processed by: cddbd v1.5.2PL0 Copyright (c) Steve Scherf et al.
# Submitted via: ExactAudioCopyFreeDBPlugin 1.0
#
DISCID=8109c70b
DTITLE=L'Altra - Telephatic
DYEAR=2010
DGENRE=Country
TTITLE0=Dark Corners Ⅰ
TTITLE1=Nothing Can Tear It Apart
TTITLE2=Big Air Kiss
TTITLE3=Boys
TTITLE4=When The Ship Sinks Make It Sing
TTITLE5=Black Wind
TTITLE6=Either Was The Other's Mine
TTITLE7=Winter Loves Summer Sun
TTITLE8=This Bruise
TTITLE9=Telepathic
TTITLE10=Dark Corners II
EXTD=
EXTT0=
EXTT1=
EXTT2=
EXTT3=
EXTT4=
EXTT5=
EXTT6=
EXTT7=
EXTT8=
EXTT9=
EXTT10=
PLAYORDER=
